<svg xmlns="http://www.w3.org/2000/svg" width="32" height="32" viewBox="0 0 32 32" fill="none"><g clip-path="url(#clip0_1348_155876)"><path d="M22.4121 17.4125L15.4121 24.4125C14.6309 25.1937 13.3652 25.1937 12.584 24.4125C11.8027 23.6312 11.8027 22.3656 12.584 21.5844L18.1746 16L12.5871 10.4125C11.8059 9.63123 11.8059 8.3656 12.5871 7.58435C13.3684 6.8031 14.634 6.8031 15.4152 7.58435L22.4152 14.5844C22.8059 14.975 22.9996 15.4875 22.9996 16C22.9996 16.5125 22.8059 17.025 22.4121 17.4125Z" fill="#F7F8F9"/><path opacity="0.4" d="M16 0C7.1625 0 0 7.1625 0 16C0 24.8375 7.1625 32 16 32C24.8375 32 32 24.8375 32 16C32 7.1625 24.8375 0 16 0ZM22.4125 17.4125L15.4125 24.4125C14.6313 25.1938 13.3656 25.1938 12.5844 24.4125C11.8031 23.6313 11.8031 22.3656 12.5844 21.5844L18.175 16L12.5875 10.4125C11.8062 9.63125 11.8062 8.36563 12.5875 7.58437C13.3687 6.80312 14.6344 6.80312 15.4156 7.58437L22.4156 14.5844C22.8062 14.975 23 15.4875 23 16C23 16.5125 22.8062 17.025 22.4125 17.4125Z" fill="#F7F8F9"/></g><defs><clipPath id="clip0_1348_155876"><rect width="32" height="32" fill="white"/></clipPath></defs></svg>